# Blender v2.78 (sub 0) OBJ File: 'untitled.blend'
# www.blender.org
mtllib untitled.mtl
o Cube
v 0.642404 0.880673 0.424387
v 0.647367 0.868400 0.191039
v 0.880709 0.880978 0.194835
v 0.875746 0.893251 0.428183
v 0.874307 4.084434 0.162454
v 0.875561 4.066185 -0.166748
v 1.204946 4.050035 -0.163916
v 1.203693 4.068285 0.165286
v 3.199524 0.830605 0.452155
v 3.193271 0.817951 0.218874
v 3.426819 0.808171 0.213548
v 3.433072 0.820823 0.446830
v 2.874873 4.008319 0.245282
v 2.877117 3.993670 -0.084232
v 3.206525 4.009676 -0.083243
v 3.204281 4.024325 0.246271
v 0.554260 0.845396 -2.221066
v 0.552050 0.855487 -2.454640
v 0.785861 0.861830 -2.456369
v 0.788071 0.851738 -2.222795
v 0.771978 4.041033 -1.884437
v 0.774194 4.057921 -2.213762
v 1.103626 4.042187 -2.212968
v 1.101410 4.025298 -1.883643
v 3.169496 0.856897 -2.170989
v 3.174571 0.868632 -2.404383
v 3.408175 0.859302 -2.400130
v 3.403098 0.847566 -2.166736
v 2.858510 4.035031 -1.899225
v 2.859102 4.048088 -2.228864
v 3.188552 4.063558 -2.227193
v 3.187962 4.050502 -1.897555
v 0.592697 4.089035 0.436285
v 0.592697 3.937150 0.436285
v 0.592697 4.089035 -2.383320
v 0.592697 3.937150 -2.383320
v 3.412301 4.089035 0.436285
v 3.412301 3.937150 0.436285
v 3.412301 4.089035 -2.383320
v 3.412301 3.937150 -2.383320
v 0.485983 7.605817 0.629299
v 0.487236 7.587567 0.300097
v 0.816622 7.571418 0.302929
v 0.815368 7.589668 0.632131
v 3.155099 7.529702 0.712127
v 3.157343 7.515053 0.382613
v 3.486751 7.531059 0.383602
v 3.484507 7.545708 0.713116
v 0.754014 2.810431 -2.099658
v 0.754014 2.977495 -2.099658
v 0.754014 2.810431 -2.266723
v 0.754014 2.977495 -2.266723
v 3.209854 2.810431 -2.099658
v 3.209854 2.977495 -2.099658
v 3.209854 2.810431 -2.266723
v 3.209854 2.977495 -2.266723
v 0.754014 1.932298 -2.099658
v 0.754014 2.099363 -2.099658
v 0.754014 1.932298 -2.266723
v 0.754014 2.099363 -2.266723
v 3.209854 1.932298 -2.099658
v 3.209854 2.099363 -2.099658
v 3.209854 1.932298 -2.266723
v 3.209854 2.099363 -2.266723
v 0.754014 1.801242 0.319640
v 0.754014 1.968307 0.319640
v 0.754014 1.801242 0.152576
v 0.754014 1.968307 0.152576
v 3.209854 1.801242 0.319640
v 3.209854 1.968307 0.319640
v 3.209854 1.801242 0.152576
v 3.209854 1.968307 0.152576
v 0.805666 2.698775 0.212473
v 0.805666 2.865840 0.212473
v 0.805666 2.698775 0.045408
v 0.805666 2.865840 0.045408
v 3.261506 2.698775 0.212473
v 3.261506 2.865840 0.212473
v 3.261506 2.698775 0.045408
v 3.261506 2.865840 0.045408
v 0.916099 4.558936 0.207120
v 0.916099 4.968526 0.282429
v 0.916099 4.579442 0.095590
v 0.916099 4.989032 0.170899
v 3.151072 4.558936 0.207120
v 3.151072 4.968526 0.282429
v 3.151072 4.579442 0.095590
v 3.151072 4.989032 0.170899
v 3.230630 7.003472 0.362288
v 3.230630 6.593882 0.286979
v 3.230630 6.982965 0.473818
v 3.230630 6.573375 0.398509
v 0.836541 7.003472 0.362288
v 0.836541 6.593882 0.286979
v 0.836541 6.982965 0.473818
v 0.836541 6.573375 0.398509
v 0.916099 5.550619 0.260788
v 0.916099 5.960210 0.336097
v 0.916099 5.571126 0.149258
v 0.916099 5.980716 0.224567
v 3.151072 5.550619 0.260788
v 3.151072 5.960210 0.336097
v 3.151072 5.571126 0.149258
v 3.151072 5.980716 0.224567
v 0.920715 2.502670 -2.273920
v 0.920715 2.353510 -2.273920
v 0.920715 2.502670 0.220825
v 0.920715 2.353510 0.220825
v 0.771555 2.502670 -2.273920
v 0.771555 2.353510 -2.273920
v 0.771555 2.502670 0.220825
v 0.771555 2.353510 0.220825
v 3.264723 2.502670 -2.273920
v 3.264723 2.353510 -2.273920
v 3.264723 2.502670 0.220825
v 3.264723 2.353510 0.220825
v 3.115562 2.502670 -2.273920
v 3.115562 2.353510 -2.273920
v 3.115562 2.502670 0.220825
v 3.115562 2.353510 0.220825
vn 0.0529 -0.9972 0.0536
vn 0.0034 -0.1317 0.9913
vn -0.9974 0.0703 -0.0148
vn 0.0110 -0.1128 -0.9936
vn 0.9948 -0.1007 0.0165
vn -0.0112 0.0830 0.9965
vn -0.0405 -0.9977 0.0552
vn 0.9967 -0.0807 0.0104
vn -0.9950 -0.0994 0.0119
vn -0.0066 -0.0942 -0.9955
vn 0.9976 0.0691 -0.0105
vn 0.0070 0.0643 0.9979
vn 0.0268 -0.9987 -0.0434
vn 0.0475 0.9975 0.0515
vn -0.9977 0.0683 0.0033
vn -0.0004 0.0757 -0.9971
vn 0.9951 -0.0984 -0.0047
vn -0.0001 -0.1055 0.9944
vn -0.0389 -0.9979 -0.0510
vn -0.0471 0.9981 0.0394
vn -0.9952 -0.0971 -0.0143
vn 0.0099 0.0553 -0.9984
vn 0.9977 0.0668 0.0130
vn -0.0096 -0.0852 0.9963
vn 1.0000 0.0000 0.0000
vn 0.0000 0.0000 1.0000
vn -1.0000 0.0000 0.0000
vn 0.0000 0.0000 -1.0000
vn 0.0000 -1.0000 0.0000
vn 0.0000 1.0000 0.0000
vn 0.0494 0.9973 -0.0551
vn -0.0484 0.9978 -0.0447
vn 0.0150 0.1330 -0.9910
vn -0.9939 -0.1099 0.0023
vn -0.0034 0.1317 -0.9913
vn 0.9939 0.1099 -0.0023
vn -0.9967 0.0807 -0.0104
vn -0.0150 -0.1330 0.9910
vn 0.0000 0.1808 -0.9835
vn 0.0000 -0.1808 0.9835
vn 0.0000 -0.9835 -0.1808
vn 0.0000 0.9835 0.1808
usemtl Material
s off
f 1//1 2//1 3//1 4//1
f 13//2 16//2 48//2 45//2
f 1//3 5//3 6//3 2//3
f 2//4 6//4 7//4 3//4
f 3//5 7//5 8//5 4//5
f 5//6 1//6 4//6 8//6
f 9//7 10//7 11//7 12//7
f 16//8 15//8 47//8 48//8
f 9//9 13//9 14//9 10//9
f 10//10 14//10 15//10 11//10
f 11//11 15//11 16//11 12//11
f 13//12 9//12 12//12 16//12
f 17//13 18//13 19//13 20//13
f 21//14 24//14 23//14 22//14
f 17//15 21//15 22//15 18//15
f 18//16 22//16 23//16 19//16
f 19//17 23//17 24//17 20//17
f 21//18 17//18 20//18 24//18
f 25//19 26//19 27//19 28//19
f 29//20 32//20 31//20 30//20
f 25//21 29//21 30//21 26//21
f 26//22 30//22 31//22 27//22
f 27//23 31//23 32//23 28//23
f 29//24 25//24 28//24 32//24
f 33//25 34//25 36//25 35//25
f 35//26 36//26 40//26 39//26
f 39//27 40//27 38//27 37//27
f 37//28 38//28 34//28 33//28
f 35//29 39//29 37//29 33//29
f 40//30 36//30 34//30 38//30
f 41//31 44//31 43//31 42//31
f 45//32 48//32 47//32 46//32
f 7//33 6//33 42//33 43//33
f 6//34 5//34 41//34 42//34
f 15//35 14//35 46//35 47//35
f 8//36 7//36 43//36 44//36
f 14//37 13//37 45//37 46//37
f 5//38 8//38 44//38 41//38
f 49//27 50//27 52//27 51//27
f 51//28 52//28 56//28 55//28
f 55//25 56//25 54//25 53//25
f 53//26 54//26 50//26 49//26
f 51//29 55//29 53//29 49//29
f 56//30 52//30 50//30 54//30
f 57//27 58//27 60//27 59//27
f 59//28 60//28 64//28 63//28
f 63//25 64//25 62//25 61//25
f 61//26 62//26 58//26 57//26
f 59//29 63//29 61//29 57//29
f 64//30 60//30 58//30 62//30
f 65//27 66//27 68//27 67//27
f 67//28 68//28 72//28 71//28
f 71//25 72//25 70//25 69//25
f 69//26 70//26 66//26 65//26
f 67//29 71//29 69//29 65//29
f 72//30 68//30 66//30 70//30
f 73//27 74//27 76//27 75//27
f 75//28 76//28 80//28 79//28
f 79//25 80//25 78//25 77//25
f 77//26 78//26 74//26 73//26
f 75//29 79//29 77//29 73//29
f 80//30 76//30 74//30 78//30
f 81//27 82//27 84//27 83//27
f 83//39 84//39 88//39 87//39
f 87//25 88//25 86//25 85//25
f 85//40 86//40 82//40 81//40
f 83//41 87//41 85//41 81//41
f 88//42 84//42 82//42 86//42
f 89//42 93//42 95//42 91//42
f 94//41 90//41 92//41 96//41
f 92//40 91//40 95//40 96//40
f 90//25 89//25 91//25 92//25
f 94//39 93//39 89//39 90//39
f 96//27 95//27 93//27 94//27
f 97//27 98//27 100//27 99//27
f 99//39 100//39 104//39 103//39
f 103//25 104//25 102//25 101//25
f 101//40 102//40 98//40 97//40
f 99//41 103//41 101//41 97//41
f 104//42 100//42 98//42 102//42
f 110//29 106//29 108//29 112//29
f 110//28 109//28 105//28 106//28
f 112//27 111//27 109//27 110//27
f 108//26 107//26 111//26 112//26
f 105//30 109//30 111//30 107//30
f 106//25 105//25 107//25 108//25
f 118//29 114//29 116//29 120//29
f 118//28 117//28 113//28 114//28
f 120//27 119//27 117//27 118//27
f 116//26 115//26 119//26 120//26
f 113//30 117//30 119//30 115//30
f 114//25 113//25 115//25 116//25
